<svg xmlns="http://www.w3.org/2000/svg" width="1440" height="1024" viewBox="0 0 1440 1024">
  <defs>
    <style>
      .font { font-family: "Microsoft YaHei UI", "Segoe UI", Arial, sans-serif; }
      .mono { font-family: "Cascadia Mono", "Consolas", monospace; }
      .app { fill: #e9edf1; }
      .chrome { fill: #111923; }
      .menu { fill: #1e2934; }
      .toolbar { fill: #dce2e8; stroke: #aab5c0; stroke-width: 1; }
      .dock-title { fill: #cad2db; }
      .left { fill: #202a35; }
      .left2 { fill: #273340; }
      .panel { fill: #f4f6f8; stroke: #aab5c0; stroke-width: 1; }
      .panel-head { fill: #e2e7ec; stroke: #aab5c0; stroke-width: 1; }
      .panel-sub { fill: #edf1f4; stroke: #b7c1ca; stroke-width: 1; }
      .field { fill: #f9fafb; stroke: #9eaab6; stroke-width: 1; }
      .btn { fill: #eef2f5; stroke: #8f9baa; stroke-width: 1; }
      .btn-main { fill: #1f6045; stroke: #174b36; stroke-width: 1; }
      .btn-warn { fill: #f5ead0; stroke: #9b681c; stroke-width: 1; }
      .tab { fill: #e7ecef; stroke: #aab5c0; stroke-width: 1; }
      .tab-on { fill: #f7f8f9; stroke: #7e8b98; stroke-width: 1; }
      .stage-done { fill: #dceae2; stroke: #6d927d; stroke-width: 1; }
      .stage-run { fill: #dbe8f2; stroke: #6e90ad; stroke-width: 1; }
      .stage-wait { fill: #e7ebef; stroke: #aab5c0; stroke-width: 1; }
      .stage-warn { fill: #f2e5c8; stroke: #b78b44; stroke-width: 1; }
      .ink { fill: #151c24; }
      .muted { fill: #566473; }
      .light { fill: #e8edf2; }
      .dim { fill: #aeb9c5; }
      .green { fill: #1f6045; }
      .blue { fill: #1e5f91; }
      .amber { fill: #936315; }
      .red { fill: #9c2b21; }
      .hair { stroke: #aab5c0; stroke-width: 1; }
      .hair2 { stroke: #c3ccd5; stroke-width: 1; }
      .grid { stroke: #d0d6dc; stroke-width: 1; opacity: .7; }
      .map-thin { fill: none; stroke: #83909d; stroke-width: 1; opacity: .55; }
      .map-mid { fill: none; stroke: #53616f; stroke-width: 1.35; opacity: .78; }
      .map-heavy { fill: none; stroke: #26323d; stroke-width: 2; opacity: .82; }
      .map-red { fill: none; stroke: #9c2b21; stroke-width: 1.4; opacity: .72; stroke-dasharray: 8 5; }
      .t12 { font-size: 12px; }
      .t13 { font-size: 13px; }
      .t14 { font-size: 14px; }
      .t16 { font-size: 16px; font-weight: 700; }
      .t18 { font-size: 18px; font-weight: 700; }
      .bold { font-weight: 700; }
    </style>
  </defs>

  <rect width="1440" height="1024" class="app"/>

  <!-- Window title and menu -->
  <rect x="0" y="0" width="1440" height="30" class="chrome"/>
  <text x="14" y="20" class="font light t13 bold">GeoScan Workbench</text>
  <text x="164" y="20" class="font dim t12 mono">T01_0006.tif</text>
  <text x="1280" y="20" class="font dim t12">runtime rt1 · engine 0.1.x</text>

  <rect x="0" y="30" width="1440" height="28" class="menu"/>
  <text x="16" y="49" class="font light t12">文件</text>
  <text x="62" y="49" class="font light t12">运行</text>
  <text x="108" y="49" class="font light t12">视图</text>
  <text x="154" y="49" class="font light t12">工具</text>
  <text x="200" y="49" class="font light t12">帮助</text>

  <!-- Toolbar -->
  <rect x="0" y="58" width="1440" height="50" class="toolbar"/>
  <rect x="14" y="68" width="94" height="30" rx="2" class="btn"/>
  <text x="36" y="88" class="font ink t12">选择图像</text>
  <rect x="116" y="68" width="86" height="30" rx="2" class="btn-main"/>
  <text x="146" y="88" class="font light t12 bold">运行</text>
  <rect x="210" y="68" width="72" height="30" rx="2" class="btn"/>
  <text x="234" y="88" class="font ink t12">停止</text>
  <rect x="290" y="68" width="104" height="30" rx="2" class="btn"/>
  <text x="318" y="88" class="font ink t12">打开输出</text>
  <rect x="414" y="68" width="120" height="30" rx="2" class="btn"/>
  <text x="438" y="88" class="font ink t12">重新预检</text>
  <line x1="554" y1="66" x2="554" y2="100" class="hair"/>
  <text x="574" y="88" class="font muted t12">工作目录</text>
  <rect x="636" y="68" width="432" height="30" class="field"/>
  <text x="648" y="88" class="font ink t12 mono">E:\mapgiswork\production_runs\T01_0006_P</text>
  <rect x="1090" y="68" width="138" height="30" rx="2" class="btn-warn"/>
  <text x="1114" y="88" class="font ink t12">候选未验收</text>
  <rect x="1240" y="68" width="88" height="30" rx="2" class="btn"/>
  <text x="1262" y="88" class="font ink t12">设置</text>
  <rect x="1336" y="68" width="88" height="30" rx="2" class="btn"/>
  <text x="1358" y="88" class="font ink t12">更新</text>

  <!-- Main frame -->
  <rect x="0" y="108" width="1440" height="916" fill="#dfe5ea"/>

  <!-- Left explorer -->
  <rect x="0" y="108" width="218" height="916" class="left"/>
  <rect x="0" y="108" width="218" height="32" class="left2"/>
  <text x="14" y="129" class="font light t13 bold">项目</text>
  <text x="14" y="166" class="font dim t12">当前任务</text>
  <rect x="0" y="180" width="218" height="34" class="left2"/>
  <rect x="0" y="180" width="4" height="34" fill="#6ea17d"/>
  <text x="18" y="202" class="font light t12">T01_0006 单张运行</text>
  <text x="18" y="238" class="font dim t12">批量队列</text>
  <text x="18" y="272" class="font dim t12">最近输出</text>
  <line x1="12" y1="306" x2="206" y2="306" stroke="#394653" stroke-width="1"/>

  <text x="14" y="338" class="font light t13 bold">产物目录</text>
  <text x="18" y="368" class="font dim t12 mono">00_INPUT_FREEZE</text>
  <text x="18" y="396" class="font dim t12 mono">04_LINE_WORKFLOW</text>
  <text x="18" y="424" class="font light t12 mono">05_TEXT_WORKFLOW</text>
  <text x="18" y="452" class="font dim t12 mono">08_SECTION_W60</text>
  <text x="18" y="480" class="font dim t12 mono">MAPGIS_LOAD_READY</text>
  <line x1="12" y1="520" x2="206" y2="520" stroke="#394653" stroke-width="1"/>

  <text x="14" y="552" class="font light t13 bold">预设</text>
  <rect x="16" y="570" width="84" height="26" rx="2" fill="#e7ecef"/>
  <text x="43" y="588" class="font ink t12">新手</text>
  <rect x="108" y="570" width="84" height="26" rx="2" fill="#303d4a"/>
  <text x="135" y="588" class="font dim t12">专家</text>

  <!-- Stage status row -->
  <rect x="218" y="108" width="1222" height="76" class="panel"/>
  <text x="240" y="135" class="font ink t16">作业状态</text>
  <text x="240" y="160" class="font muted t12">这里显示产物和流程状态，不显示地质质量结论。</text>

  <g transform="translate(410 124)">
    <rect width="128" height="42" class="stage-done" rx="2"/>
    <text x="12" y="17" class="font ink t12 mono">00_INPUT</text>
    <text x="12" y="34" class="font ink t12">冻结完成</text>
  </g>
  <g transform="translate(548 124)">
    <rect width="128" height="42" class="stage-done" rx="2"/>
    <text x="12" y="17" class="font ink t12 mono">04_LINE</text>
    <text x="12" y="34" class="font ink t12">线 120</text>
  </g>
  <g transform="translate(686 124)">
    <rect width="128" height="42" class="stage-run" rx="2"/>
    <text x="12" y="17" class="font ink t12 mono">05_TEXT</text>
    <text x="12" y="34" class="font ink t12">识别中</text>
  </g>
  <g transform="translate(824 124)">
    <rect width="128" height="42" class="stage-wait" rx="2"/>
    <text x="12" y="17" class="font muted t12 mono">DXF</text>
    <text x="12" y="34" class="font muted t12">等待</text>
  </g>
  <g transform="translate(962 124)">
    <rect width="128" height="42" class="stage-wait" rx="2"/>
    <text x="12" y="17" class="font muted t12 mono">SECTION</text>
    <text x="12" y="34" class="font muted t12">等待</text>
  </g>
  <g transform="translate(1100 124)">
    <rect width="128" height="42" class="stage-wait" rx="2"/>
    <text x="12" y="17" class="font muted t12 mono">READY</text>
    <text x="12" y="34" class="font muted t12">未生成</text>
  </g>
  <g transform="translate(1268 124)">
    <rect width="132" height="42" class="stage-warn" rx="2"/>
    <text x="14" y="17" class="font ink t12">人工核查</text>
    <text x="14" y="34" class="font ink t12">checked=no</text>
  </g>

  <!-- Center map canvas -->
  <rect x="238" y="204" width="782" height="560" class="panel"/>
  <rect x="238" y="204" width="782" height="32" class="panel-head"/>
  <text x="254" y="225" class="font ink t13 bold">扫描图与候选叠加</text>
  <text x="808" y="225" class="font muted t12 mono">t01_0006_source_frozen.tif · 1px=1 MapGIS unit</text>

  <rect x="258" y="256" width="742" height="420" fill="#eef0ed" stroke="#9eaab6" stroke-width="1"/>
  <!-- map grid and contours -->
  <g opacity="0.58">
    <line x1="300" y1="286" x2="958" y2="286" class="grid"/>
    <line x1="300" y1="346" x2="958" y2="346" class="grid"/>
    <line x1="300" y1="406" x2="958" y2="406" class="grid"/>
    <line x1="300" y1="466" x2="958" y2="466" class="grid"/>
    <line x1="300" y1="526" x2="958" y2="526" class="grid"/>
    <line x1="300" y1="586" x2="958" y2="586" class="grid"/>
    <line x1="340" y1="270" x2="340" y2="650" class="grid"/>
    <line x1="430" y1="270" x2="430" y2="650" class="grid"/>
    <line x1="520" y1="270" x2="520" y2="650" class="grid"/>
    <line x1="610" y1="270" x2="610" y2="650" class="grid"/>
    <line x1="700" y1="270" x2="700" y2="650" class="grid"/>
    <line x1="790" y1="270" x2="790" y2="650" class="grid"/>
    <line x1="880" y1="270" x2="880" y2="650" class="grid"/>
  </g>
  <path d="M286 308 C390 266 510 286 602 258 C724 224 828 246 972 214" class="map-thin"/>
  <path d="M282 370 C388 338 478 374 576 350 C716 316 824 348 982 320" class="map-heavy"/>
  <path d="M286 446 C400 416 520 454 642 418 C772 380 856 426 976 392" class="map-mid"/>
  <path d="M286 538 C394 508 514 544 626 514 C748 480 868 530 976 496" class="map-thin"/>
  <path d="M312 620 C436 590 548 626 660 596 C784 560 884 610 958 580" class="map-mid"/>
  <path d="M344 274 L908 650" class="map-thin"/>
  <path d="M940 274 L384 650" class="map-thin"/>
  <path d="M298 388 C424 360 520 388 648 356 C746 334 854 350 966 332" class="map-red"/>
  <text x="318" y="334" class="font ink t12">T01</text>
  <text x="516" y="440" class="font ink t12">D3</text>
  <text x="780" y="388" class="font ink t12">P2</text>
  <rect x="276" y="690" width="160" height="26" class="tab-on"/>
  <text x="298" y="708" class="font ink t12">源图</text>
  <rect x="436" y="690" width="160" height="26" class="tab"/>
  <text x="458" y="708" class="font muted t12">线候选</text>
  <rect x="596" y="690" width="160" height="26" class="tab"/>
  <text x="618" y="708" class="font muted t12">文字候选</text>
  <rect x="756" y="690" width="160" height="26" class="tab"/>
  <text x="778" y="708" class="font muted t12">交付预览</text>
  <text x="276" y="744" class="font muted t12">当前预览是几何对齐参考，不代表候选已人工验收。</text>

  <!-- Right inspector -->
  <rect x="1040" y="204" width="380" height="560" class="panel"/>
  <rect x="1040" y="204" width="380" height="32" class="panel-head"/>
  <text x="1056" y="225" class="font ink t13 bold">作业检查器</text>

  <text x="1058" y="264" class="font ink t14 bold">输入与输出</text>
  <text x="1058" y="292" class="font muted t12">Map ID</text>
  <rect x="1130" y="274" width="268" height="28" class="field"/>
  <text x="1142" y="293" class="font ink t12 mono">T01_0006</text>
  <text x="1058" y="328" class="font muted t12">输出</text>
  <rect x="1130" y="310" width="268" height="28" class="field"/>
  <text x="1142" y="329" class="font ink t12 mono">T01_0006_P</text>

  <line x1="1058" y1="362" x2="1398" y2="362" class="hair2"/>
  <text x="1058" y="392" class="font ink t14 bold">预检</text>
  <text x="1058" y="420" class="font ink t12">SECTION</text>
  <text x="1344" y="420" class="font green t12 bold">OK</text>
  <text x="1058" y="450" class="font ink t12">W60_Conv</text>
  <text x="1344" y="450" class="font green t12 bold">OK</text>
  <text x="1058" y="480" class="font ink t12">ogr2ogr</text>
  <text x="1344" y="480" class="font green t12 bold">OK</text>
  <text x="1058" y="510" class="font ink t12">密码狗 dog67.exe</text>
  <text x="1320" y="510" class="font green t12 bold">运行中</text>
  <text x="1058" y="540" class="font muted t12">OCR</text>
  <text x="1288" y="540" class="font muted t12">内置或 fallback</text>

  <line x1="1058" y1="574" x2="1398" y2="574" class="hair2"/>
  <text x="1058" y="604" class="font ink t14 bold">当前阶段</text>
  <text x="1058" y="632" class="font ink t12 mono">05_TEXT_WORKFLOW</text>
  <text x="1058" y="656" class="font muted t12">文字候选生成中。DXF 导出和 SECTION 转换等待此阶段完成。</text>
  <rect x="1058" y="684" width="94" height="28" rx="2" class="btn"/>
  <text x="1078" y="703" class="font ink t12">查看报告</text>
  <rect x="1160" y="684" width="94" height="28" rx="2" class="btn"/>
  <text x="1180" y="703" class="font ink t12">复制路径</text>
  <rect x="1262" y="684" width="136" height="28" rx="2" class="btn-warn"/>
  <text x="1282" y="703" class="font ink t12">切换 prepare</text>

  <!-- Bottom dock -->
  <rect x="218" y="784" width="1222" height="240" class="panel"/>
  <rect x="218" y="784" width="1222" height="30" class="panel-head"/>
  <rect x="232" y="790" width="86" height="24" class="tab-on"/>
  <text x="254" y="807" class="font ink t12">产物</text>
  <rect x="318" y="790" width="86" height="24" class="tab"/>
  <text x="340" y="807" class="font muted t12">日志</text>
  <rect x="404" y="790" width="86" height="24" class="tab"/>
  <text x="426" y="807" class="font muted t12">批量</text>

  <rect x="238" y="832" width="1182" height="76" fill="#f8fafb" stroke="#b7c1ca" stroke-width="1"/>
  <rect x="238" y="832" width="1182" height="26" fill="#e7ecef"/>
  <text x="254" y="850" class="font muted t12">产物</text>
  <text x="442" y="850" class="font muted t12">状态</text>
  <text x="548" y="850" class="font muted t12">数量</text>
  <text x="646" y="850" class="font muted t12">路径</text>
  <text x="254" y="880" class="font ink t12">线候选 GeoJSON</text>
  <text x="442" y="880" class="font green t12 bold">完成</text>
  <text x="548" y="880" class="font ink t12 mono">120</text>
  <text x="646" y="880" class="font muted t12 mono">04_LINE_WORKFLOW\T01_0006_review_line_candidates.geojson</text>
  <line x1="238" y1="890" x2="1420" y2="890" class="hair2"/>
  <text x="254" y="902" class="font ink t12">文字候选 GeoJSON</text>
  <text x="442" y="902" class="font blue t12 bold">运行中</text>
  <text x="548" y="902" class="font ink t12 mono">...</text>
  <text x="646" y="902" class="font muted t12 mono">05_TEXT_WORKFLOW\...</text>

  <rect x="238" y="924" width="1182" height="78" fill="#111923"/>
  <text x="254" y="948" class="font light t12 mono">[12:44:12] start 05_TEXT_WORKFLOW</text>
  <text x="254" y="970" class="font light t12 mono">[12:44:13] candidates remain unchecked; AI review is advisory only</text>
  <text x="254" y="992" class="font light t12 mono">[12:44:20] next stage: DXF_EXPORT</text>
</svg>
