<svg xmlns="http://www.w3.org/2000/svg" width="1440" height="900" viewBox="0 0 1440 900">
  <defs>
    <style>
      .ui { font-family: "Microsoft YaHei UI", "Segoe UI", Arial, sans-serif; fill: #1f2730; }
      .mono { font-family: "Consolas", "Cascadia Mono", monospace; fill: #24303c; }
      .small { font-size: 12px; }
      .tiny { font-size: 10.5px; }
      .label { font-size: 11px; fill: #4b5967; }
      .head { font-size: 12px; font-weight: 600; fill: #26313d; }
      .muted { fill: #687684; }
      .panel { fill: #eef1f4; stroke: #9ca8b5; stroke-width: 1; }
      .panel2 { fill: #f7f8fa; stroke: #a9b3bd; stroke-width: 1; }
      .chrome { fill: #d9dee5; stroke: #8d9aa8; stroke-width: 1; }
      .hair { stroke: #aeb8c3; stroke-width: 1; }
      .darkhair { stroke: #7e8b98; stroke-width: 1; }
      .active { fill: #dbe7f3; stroke: #5d85aa; stroke-width: 1; }
      .blue { fill: #2d6894; }
      .green { fill: #2d7d4f; }
      .warn { fill: #a05f1d; }
      .canvas-bg { fill: #c8ced6; stroke: #7e8b98; stroke-width: 1; }
      .grid { stroke: #b4bbc4; stroke-width: 1; opacity: .55; }
      .candidate { fill: none; stroke: #2f3740; stroke-width: 1.2; opacity: .82; }
      .candidate2 { fill: none; stroke: #315e88; stroke-width: 1.4; opacity: .72; }
      .textbox { fill: rgba(255,255,255,.42); stroke: #5f6974; stroke-width: .8; }
      .no-fill { fill: none; }
    </style>
    <pattern id="scanGrain" width="16" height="16" patternUnits="userSpaceOnUse">
      <rect width="16" height="16" fill="#c8ced6"/>
      <path d="M0 2h16M0 9h16M2 0v16M11 0v16" stroke="#b8c0ca" stroke-width=".5" opacity=".34"/>
      <circle cx="4" cy="5" r=".7" fill="#919aa4" opacity=".28"/>
      <circle cx="13" cy="12" r=".6" fill="#eef1f4" opacity=".22"/>
    </pattern>
  </defs>

  <rect width="1440" height="900" fill="#cfd5dd"/>

  <!-- Window title and menu chrome -->
  <rect x="18" y="16" width="1404" height="868" fill="#e4e8ed" stroke="#687684"/>
  <rect x="18" y="16" width="1404" height="30" class="chrome"/>
  <text x="32" y="36" class="ui small">GeoScan - T01_0004_P</text>
  <text x="1266" y="36" class="mono small muted">_</text>
  <rect x="1300" y="24" width="12" height="10" fill="none" stroke="#4d5863"/>
  <text x="1340" y="36" class="mono small muted">X</text>

  <rect x="18" y="46" width="1404" height="26" fill="#eef1f4" stroke="#9ca8b5"/>
  <text x="33" y="64" class="ui tiny">文件</text>
  <text x="75" y="64" class="ui tiny">项目</text>
  <text x="117" y="64" class="ui tiny">运行</text>
  <text x="159" y="64" class="ui tiny">查看</text>
  <text x="201" y="64" class="ui tiny">工具</text>
  <text x="243" y="64" class="ui tiny">帮助</text>

  <rect x="18" y="72" width="1404" height="47" fill="#dfe4ea" stroke="#9ca8b5"/>
  <g class="ui tiny">
    <rect x="32" y="82" width="72" height="27" class="panel2"/>
    <text x="48" y="100">打开影像</text>
    <rect x="110" y="82" width="72" height="27" class="panel2"/>
    <text x="126" y="100">项目根</text>
    <rect x="188" y="82" width="66" height="27" class="panel2"/>
    <text x="208" y="100">预检</text>
    <rect x="265" y="82" width="66" height="27" class="active"/>
    <polygon points="283,89 283,103 296,96" class="blue"/>
    <text x="305" y="100">开始</text>
    <rect x="337" y="82" width="58" height="27" class="panel2"/>
    <rect x="354" y="91" width="10" height="10" fill="#6c7681"/>
    <text x="371" y="100">停止</text>
    <line x1="413" y1="80" x2="413" y2="111" class="darkhair"/>
    <rect x="430" y="82" width="90" height="27" class="panel2"/>
    <text x="444" y="100">增强预览</text>
    <rect x="526" y="82" width="88" height="27" class="panel2"/>
    <text x="541" y="100">导出 DXF</text>
    <rect x="620" y="82" width="108" height="27" class="panel2"/>
    <text x="634" y="100">MapGIS 转换</text>
  </g>
  <text x="1012" y="100" class="mono tiny muted">workspace: E:\mapgiswork\T01_0004_P</text>

  <!-- Stage strip -->
  <rect x="18" y="119" width="1404" height="38" fill="#eef1f4" stroke="#9ca8b5"/>
  <g class="ui tiny">
    <rect x="32" y="128" width="142" height="20" fill="#eaf0f6" stroke="#7da1c0"/>
    <text x="43" y="142">00_INPUT_FREEZE</text>
    <rect x="184" y="128" width="142" height="20" fill="#eaf0f6" stroke="#7da1c0"/>
    <text x="199" y="142">04_LINE_WORKFLOW</text>
    <rect x="336" y="128" width="142" height="20" fill="#f7f8fa" stroke="#a9b3bd"/>
    <text x="351" y="142">05_TEXT_WORKFLOW</text>
    <rect x="488" y="128" width="118" height="20" fill="#f7f8fa" stroke="#a9b3bd"/>
    <text x="505" y="142">DXF_EXPORT</text>
    <rect x="616" y="128" width="134" height="20" fill="#f7f8fa" stroke="#a9b3bd"/>
    <text x="629" y="142">08_SECTION_W60</text>
    <rect x="760" y="128" width="146" height="20" fill="#f7f8fa" stroke="#a9b3bd"/>
    <text x="775" y="142">MAPGIS_LOAD_READY</text>
  </g>

  <!-- Left project dock -->
  <rect x="18" y="157" width="262" height="545" class="panel"/>
  <rect x="18" y="157" width="262" height="27" fill="#dfe4ea" stroke="#9ca8b5"/>
  <text x="32" y="175" class="ui head">项目</text>
  <text x="242" y="175" class="mono tiny muted">...</text>
  <rect x="28" y="194" width="236" height="25" fill="#f7f8fa" stroke="#b6c0ca"/>
  <text x="39" y="211" class="ui tiny muted">过滤项目项</text>
  <g class="ui tiny">
    <text x="32" y="242">▾ T01_0004_P</text>
    <text x="51" y="266">▸ 00_INPUT_FREEZE</text>
    <circle cx="42" cy="263" r="4" class="green"/>
    <text x="51" y="290">▸ 04_LINE_WORKFLOW</text>
    <circle cx="42" cy="287" r="4" class="green"/>
    <rect x="29" y="301" width="236" height="24" fill="#dbe7f3" stroke="#8aa7c1"/>
    <text x="51" y="318">▾ 05_TEXT_WORKFLOW</text>
    <circle cx="42" cy="315" r="4" class="warn"/>
    <text x="69" y="342" class="mono tiny">text_candidates.geojson</text>
    <text x="69" y="365" class="mono tiny">ocr_regions.json</text>
    <text x="69" y="388" class="mono tiny">fallback_regions.json</text>
    <text x="51" y="416">▸ DXF_EXPORT</text>
    <circle cx="42" cy="413" r="4" fill="#a9b3bd"/>
    <text x="51" y="440">▸ 08_SECTION_W60</text>
    <circle cx="42" cy="437" r="4" fill="#a9b3bd"/>
    <text x="51" y="464">▸ MAPGIS_LOAD_READY</text>
    <circle cx="42" cy="461" r="4" fill="#a9b3bd"/>
  </g>
  <line x1="18" y1="498" x2="280" y2="498" class="hair"/>
  <text x="32" y="519" class="ui head">运行队列</text>
  <g class="mono tiny">
    <text x="34" y="546">T01_0004    running    02:18</text>
    <text x="34" y="569">T01_0005    waiting    --:--</text>
    <text x="34" y="592">T01_0006    waiting    --:--</text>
  </g>
  <rect x="31" y="620" width="220" height="9" fill="#d4dae1" stroke="#9ca8b5"/>
  <rect x="31" y="620" width="92" height="9" fill="#6f93b4"/>
  <text x="33" y="650" class="ui tiny muted">当前阶段: text_candidate_workflow</text>
  <text x="33" y="672" class="ui tiny muted">候选不会自动标记 checked=yes</text>

  <!-- Central canvas -->
  <rect x="280" y="157" width="810" height="545" fill="#ccd3db" stroke="#7e8b98"/>
  <rect x="294" y="171" width="782" height="31" fill="#eef1f4" stroke="#9ca8b5"/>
  <text x="307" y="191" class="ui tiny">T01_0004_pixel_unit.tif</text>
  <text x="872" y="191" class="mono tiny muted">100%   px=(3612, 2088)   dpi=25.4</text>
  <rect x="294" y="202" width="782" height="487" fill="url(#scanGrain)" stroke="#7e8b98"/>
  <g opacity=".42">
    <line x1="333" y1="202" x2="333" y2="689" class="grid"/>
    <line x1="372" y1="202" x2="372" y2="689" class="grid"/>
    <line x1="411" y1="202" x2="411" y2="689" class="grid"/>
    <line x1="450" y1="202" x2="450" y2="689" class="grid"/>
    <line x1="489" y1="202" x2="489" y2="689" class="grid"/>
    <line x1="528" y1="202" x2="528" y2="689" class="grid"/>
    <line x1="567" y1="202" x2="567" y2="689" class="grid"/>
    <line x1="606" y1="202" x2="606" y2="689" class="grid"/>
    <line x1="645" y1="202" x2="645" y2="689" class="grid"/>
    <line x1="684" y1="202" x2="684" y2="689" class="grid"/>
    <line x1="723" y1="202" x2="723" y2="689" class="grid"/>
    <line x1="762" y1="202" x2="762" y2="689" class="grid"/>
    <line x1="801" y1="202" x2="801" y2="689" class="grid"/>
    <line x1="840" y1="202" x2="840" y2="689" class="grid"/>
    <line x1="879" y1="202" x2="879" y2="689" class="grid"/>
    <line x1="918" y1="202" x2="918" y2="689" class="grid"/>
    <line x1="957" y1="202" x2="957" y2="689" class="grid"/>
    <line x1="996" y1="202" x2="996" y2="689" class="grid"/>
    <line x1="1035" y1="202" x2="1035" y2="689" class="grid"/>
    <line x1="294" y1="241" x2="1076" y2="241" class="grid"/>
    <line x1="294" y1="280" x2="1076" y2="280" class="grid"/>
    <line x1="294" y1="319" x2="1076" y2="319" class="grid"/>
    <line x1="294" y1="358" x2="1076" y2="358" class="grid"/>
    <line x1="294" y1="397" x2="1076" y2="397" class="grid"/>
    <line x1="294" y1="436" x2="1076" y2="436" class="grid"/>
    <line x1="294" y1="475" x2="1076" y2="475" class="grid"/>
    <line x1="294" y1="514" x2="1076" y2="514" class="grid"/>
    <line x1="294" y1="553" x2="1076" y2="553" class="grid"/>
    <line x1="294" y1="592" x2="1076" y2="592" class="grid"/>
    <line x1="294" y1="631" x2="1076" y2="631" class="grid"/>
    <line x1="294" y1="670" x2="1076" y2="670" class="grid"/>
  </g>
  <path d="M332 522 C410 470 486 470 548 422 C614 370 691 355 764 304 C826 261 898 250 1017 228" class="candidate"/>
  <path d="M329 577 C407 531 480 528 546 485 C620 439 703 425 785 383 C861 344 943 331 1027 300" class="candidate"/>
  <path d="M350 336 L1036 505" class="candidate2"/>
  <path d="M380 624 L913 259" class="candidate2"/>
  <path d="M432 222 L458 681" class="candidate"/>
  <path d="M700 210 C714 325 704 493 747 681" class="candidate"/>
  <rect x="608" y="408" width="72" height="20" class="textbox"/>
  <text x="616" y="422" class="mono tiny">Qn2</text>
  <rect x="834" y="296" width="94" height="20" class="textbox"/>
  <text x="842" y="310" class="mono tiny">Jx / unchecked</text>
  <rect x="996" y="592" width="58" height="20" class="textbox"/>
  <text x="1004" y="606" class="mono tiny">fault?</text>
  <rect x="307" y="214" width="158" height="24" fill="#eef1f4" opacity=".86" stroke="#8d9aa8"/>
  <text x="318" y="231" class="ui tiny">叠加: raster + line + text</text>
  <rect x="944" y="657" width="116" height="22" fill="#eef1f4" opacity=".88" stroke="#8d9aa8"/>
  <text x="955" y="672" class="mono tiny">review only</text>

  <!-- Right inspector dock -->
  <rect x="1090" y="157" width="332" height="545" class="panel"/>
  <rect x="1090" y="157" width="332" height="27" fill="#dfe4ea" stroke="#9ca8b5"/>
  <text x="1104" y="175" class="ui head">检查器</text>
  <text x="1375" y="175" class="mono tiny muted">pin</text>
  <text x="1105" y="207" class="ui head">预检</text>
  <g class="ui tiny">
    <rect x="1105" y="219" width="302" height="25" fill="#f7f8fa" stroke="#b6c0ca"/>
    <circle cx="1120" cy="232" r="4" class="green"/>
    <text x="1131" y="236">输入影像已冻结</text>
    <text x="1328" y="236" class="mono tiny muted">sha256</text>
    <rect x="1105" y="245" width="302" height="25" fill="#f7f8fa" stroke="#b6c0ca"/>
    <circle cx="1120" cy="258" r="4" class="green"/>
    <text x="1131" y="262">QGIS / ogr2ogr 可用</text>
    <rect x="1105" y="271" width="302" height="25" fill="#f7f8fa" stroke="#b6c0ca"/>
    <circle cx="1120" cy="284" r="4" class="warn"/>
    <text x="1131" y="288">MapGIS dongle 未检测</text>
    <rect x="1105" y="297" width="302" height="25" fill="#f7f8fa" stroke="#b6c0ca"/>
    <circle cx="1120" cy="310" r="4" fill="#a9b3bd"/>
    <text x="1131" y="314">SECTION 转换未开始</text>
  </g>
  <line x1="1090" y1="340" x2="1422" y2="340" class="hair"/>
  <text x="1105" y="362" class="ui head">运行参数</text>
  <g class="ui tiny">
    <text x="1107" y="390" class="label">line engine</text>
    <rect x="1204" y="374" width="202" height="24" class="panel2"/>
    <text x="1214" y="391">hough</text>
    <text x="1107" y="423" class="label">level input</text>
    <rect x="1204" y="407" width="202" height="24" class="panel2"/>
    <text x="1214" y="424">off</text>
    <text x="1107" y="456" class="label">preview</text>
    <rect x="1204" y="440" width="202" height="24" class="panel2"/>
    <text x="1214" y="457">standard</text>
    <text x="1107" y="489" class="label">conversion</text>
    <rect x="1204" y="473" width="202" height="24" class="panel2"/>
    <text x="1214" y="490">cli</text>
  </g>
  <line x1="1090" y1="514" x2="1422" y2="514" class="hair"/>
  <text x="1105" y="536" class="ui head">候选摘要</text>
  <g class="mono tiny">
    <text x="1107" y="563">line_candidates       482</text>
    <text x="1107" y="586">text_candidates        37</text>
    <text x="1107" y="609">checked=yes             0</text>
    <text x="1107" y="632">ready_files             0</text>
  </g>
  <rect x="1105" y="655" width="142" height="28" class="panel2"/>
  <text x="1126" y="674" class="ui tiny">打开输出目录</text>
  <rect x="1257" y="655" width="150" height="28" class="panel2"/>
  <text x="1285" y="674" class="ui tiny">复制诊断</text>

  <!-- Bottom dock -->
  <rect x="18" y="702" width="1404" height="158" class="panel"/>
  <rect x="18" y="702" width="1404" height="28" fill="#dfe4ea" stroke="#9ca8b5"/>
  <rect x="31" y="707" width="82" height="22" fill="#f7f8fa" stroke="#8996a3"/>
  <text x="54" y="722" class="ui tiny">日志</text>
  <text x="132" y="722" class="ui tiny muted">输出文件</text>
  <text x="206" y="722" class="ui tiny muted">诊断</text>
  <g class="mono tiny">
    <text x="34" y="754">[10:31:42] freeze input raster: T01_0004.tif -> 00_INPUT_FREEZE\T01_0004_pixel_unit.tif</text>
    <text x="34" y="777">[10:31:58] line_candidate_workflow: hough segments=482, checked=no</text>
    <text x="34" y="800">[10:32:11] text_candidate_workflow: rapidocr unavailable, fallback detector active</text>
    <text x="34" y="823">[10:32:17] dxf export pending: line.dxf, text.dxf</text>
    <text x="34" y="846">[10:32:21] section bridge blocked: dog67.exe not running; conversion skipped until user confirms</text>
  </g>
  <rect x="18" y="860" width="1404" height="24" fill="#d9dee5" stroke="#8d9aa8"/>
  <text x="32" y="877" class="mono tiny">Ready | CRS: pixel unit | overlay source: generated TIFF | AI: review-only | private writers: hidden from release</text>
</svg>
